<svg width="100" height="56" viewBox="0 0 100 56" fill="none" xmlns="http://www.w3.org/2000/svg">
<path d="M15.268 18.8H16.42V22.544C16.9 21.368 17.596 20.444 18.508 19.772C19.444 19.1 20.5 18.764 21.676 18.764C22.42 18.764 23.176 18.92 23.944 19.232V20.564C23.248 20.036 22.468 19.772 21.604 19.772C20.74 19.772 19.9 20.036 19.084 20.564C18.292 21.092 17.644 21.8 17.14 22.688C16.66 23.576 16.42 24.524 16.42 25.532V35H15.268V18.8ZM28.2033 15.092C27.8673 15.092 27.5673 14.972 27.3033 14.732C27.0633 14.492 26.9433 14.192 26.9433 13.832C26.9433 13.496 27.0633 13.208 27.3033 12.968C27.5673 12.728 27.8673 12.608 28.2033 12.608C28.5393 12.608 28.8273 12.728 29.0673 12.968C29.3313 13.208 29.4633 13.496 29.4633 13.832C29.4633 14.192 29.3313 14.492 29.0673 14.732C28.8273 14.972 28.5393 15.092 28.2033 15.092ZM27.6273 18.8H28.7793V35H27.6273V18.8ZM34.1469 18.8H35.2989V22.76C35.9469 21.464 36.9549 20.42 38.3229 19.628C39.6909 18.812 41.1309 18.404 42.6429 18.404C44.2029 18.404 45.6309 18.788 46.9269 19.556C48.2469 20.324 49.2909 21.356 50.0589 22.652C50.8269 23.948 51.2109 25.364 51.2109 26.9C51.2109 28.436 50.8269 29.852 50.0589 31.148C49.2909 32.444 48.2469 33.476 46.9269 34.244C45.6309 35.012 44.2029 35.396 42.6429 35.396C41.1789 35.396 39.7629 35 38.3949 34.208C37.0509 33.416 36.0189 32.372 35.2989 31.076V42.2H34.1469V18.8ZM42.7149 34.388C44.0349 34.388 45.2589 34.052 46.3869 33.38C47.5149 32.684 48.4029 31.772 49.0509 30.644C49.7229 29.492 50.0589 28.244 50.0589 26.9C50.0589 25.58 49.7229 24.344 49.0509 23.192C48.3789 22.04 47.4789 21.128 46.3509 20.456C45.2229 19.76 43.9989 19.412 42.6789 19.412C41.3589 19.412 40.1229 19.76 38.9709 20.456C37.8429 21.152 36.9309 22.076 36.2349 23.228C35.5629 24.38 35.2269 25.616 35.2269 26.936C35.2269 28.256 35.5629 29.492 36.2349 30.644C36.9309 31.772 37.8549 32.684 39.0069 33.38C40.1589 34.052 41.3949 34.388 42.7149 34.388ZM60.9748 35.324C59.8468 35.324 58.8148 35.072 57.8788 34.568C56.9428 34.04 56.1988 33.308 55.6468 32.372C55.0948 31.436 54.8188 30.392 54.8188 29.24V8H55.9708V29.24C55.9708 30.2 56.1868 31.064 56.6188 31.832C57.0748 32.6 57.6868 33.212 58.4548 33.668C59.2228 34.1 60.0628 34.316 60.9748 34.316V35.324ZM71.4918 34.424C72.7398 34.424 73.9278 34.1 75.0558 33.452C76.1838 32.804 77.1198 31.916 77.8638 30.788V32.624C76.9758 33.608 76.0038 34.328 74.9478 34.784C73.8918 35.216 72.6918 35.432 71.3478 35.432C69.8598 35.432 68.4558 35.036 67.1358 34.244C65.8398 33.452 64.7958 32.396 64.0038 31.076C63.2358 29.756 62.8518 28.352 62.8518 26.864C62.8518 25.256 63.2358 23.816 64.0038 22.544C64.7718 21.248 65.8158 20.24 67.1358 19.52C68.4798 18.8 69.9678 18.44 71.5998 18.44C74.0958 18.44 76.2198 19.424 77.9718 21.392L66.6678 32.552C67.4598 33.2 68.2278 33.68 68.9718 33.992C69.7158 34.28 70.5558 34.424 71.4918 34.424ZM64.0038 26.756C64.0038 28.748 64.6638 30.452 65.9838 31.868L76.5318 21.392C75.7398 20.696 74.9718 20.204 74.2278 19.916C73.4838 19.604 72.5958 19.448 71.5638 19.448C70.0998 19.448 68.7918 19.772 67.6398 20.42C66.5118 21.044 65.6238 21.908 64.9758 23.012C64.3278 24.116 64.0038 25.364 64.0038 26.756ZM85.4967 35.396C84.3447 35.396 83.3247 35.204 82.4367 34.82C81.5487 34.412 80.9127 33.896 80.5287 33.272V31.364C80.9847 32.396 81.6087 33.164 82.4007 33.668C83.1927 34.148 84.2007 34.388 85.4247 34.388C86.6007 34.388 87.5487 34.028 88.2687 33.308C88.9887 32.564 89.3487 31.616 89.3487 30.464C89.3487 29.48 89.1447 28.724 88.7367 28.196C88.3287 27.644 87.6687 27.092 86.7567 26.54L85.3887 25.748C84.4047 25.148 83.6607 24.68 83.1567 24.344C82.6767 23.984 82.2927 23.588 82.0047 23.156C81.7167 22.7 81.5727 22.172 81.5727 21.572C81.5727 20.612 81.9087 19.844 82.5807 19.268C83.2527 18.692 84.1287 18.404 85.2087 18.404C86.5287 18.404 87.6327 18.704 88.5207 19.304V20.888C87.7767 19.904 86.7087 19.412 85.3167 19.412C84.5487 19.412 83.9247 19.604 83.4447 19.988C82.9647 20.372 82.7247 20.864 82.7247 21.464C82.7247 21.992 82.8687 22.46 83.1567 22.868C83.4447 23.252 83.8407 23.612 84.3447 23.948C84.8727 24.284 85.7367 24.788 86.9367 25.46C88.1607 26.156 89.0607 26.876 89.6367 27.62C90.2127 28.34 90.5007 29.288 90.5007 30.464C90.5007 31.952 90.0087 33.152 89.0247 34.064C88.0647 34.952 86.8887 35.396 85.4967 35.396Z" fill="black"/>
<path d="M15.268 18.8V17.8H14.268V18.8H15.268ZM16.42 18.8H17.42V17.8H16.42V18.8ZM16.42 22.544H15.42L17.3458 22.9219L16.42 22.544ZM18.508 19.772L17.9247 18.9596L17.9148 18.9669L18.508 19.772ZM23.944 19.232H24.944V18.5589L24.3204 18.3055L23.944 19.232ZM23.944 20.564L23.3396 21.3607L24.944 22.5778V20.564H23.944ZM19.084 20.564L18.5407 19.7243L18.5293 19.7319L19.084 20.564ZM17.14 22.688L16.2703 22.1944L16.2652 22.2034L16.2603 22.2125L17.14 22.688ZM16.42 35V36H17.42V35H16.42ZM15.268 35H14.268V36H15.268V35ZM15.268 19.8H16.42V17.8H15.268V19.8ZM15.42 18.8V22.544H17.42V18.8H15.42ZM17.3458 22.9219C17.765 21.895 18.3547 21.1271 19.1012 20.5771L17.9148 18.9669C16.8373 19.7609 16.035 20.841 15.4942 22.1661L17.3458 22.9219ZM19.0912 20.5843C19.8535 20.037 20.7046 19.764 21.676 19.764V17.764C20.2954 17.764 19.0345 18.163 17.9248 18.9597L19.0912 20.5843ZM21.676 19.764C22.277 19.764 22.9055 19.8895 23.5676 20.1585L24.3204 18.3055C23.4465 17.9505 22.563 17.764 21.676 17.764V19.764ZM22.944 19.232V20.564H24.944V19.232H22.944ZM24.5484 19.7673C23.6806 19.109 22.6889 18.772 21.604 18.772V20.772C22.2471 20.772 22.8154 20.963 23.3396 21.3607L24.5484 19.7673ZM21.604 18.772C20.5238 18.772 19.4977 19.1052 18.5407 19.7244L19.6273 21.4036C20.3023 20.9668 20.9562 20.772 21.604 20.772V18.772ZM18.5293 19.7319C17.598 20.3528 16.8457 21.1806 16.2703 22.1944L18.0097 23.1816C18.4423 22.4194 18.986 21.8312 19.6387 21.396L18.5293 19.7319ZM16.2603 22.2125C15.7015 23.2463 15.42 24.3577 15.42 25.532H17.42C17.42 24.6903 17.6185 23.9057 18.0197 23.1635L16.2603 22.2125ZM15.42 25.532V35H17.42V25.532H15.42ZM16.42 34H15.268V36H16.42V34ZM16.268 35V18.8H14.268V35H16.268ZM27.3033 14.732L26.5961 15.4391L26.613 15.4559L26.6306 15.4719L27.3033 14.732ZM27.3033 12.968L26.6306 12.2281L26.613 12.2441L26.5961 12.2609L27.3033 12.968ZM29.0672 12.968L28.3601 13.6751L28.377 13.6919L28.3946 13.7079L29.0672 12.968ZM29.0672 14.732L28.3946 13.9921L28.377 14.0081L28.3601 14.0249L29.0672 14.732ZM27.6272 18.8V17.8H26.6272V18.8H27.6272ZM28.7793 18.8H29.7793V17.8H28.7793V18.8ZM28.7793 35V36H29.7793V35H28.7793ZM27.6272 35H26.6272V36H27.6272V35ZM28.2032 14.092C28.1323 14.092 28.0683 14.076 27.9759 13.9921L26.6306 15.4719C27.0662 15.868 27.6022 16.092 28.2032 16.092V14.092ZM28.0104 14.0249C27.9702 13.9847 27.9432 13.9446 27.9432 13.832H25.9432C25.9432 14.4394 26.1563 14.9993 26.5961 15.4391L28.0104 14.0249ZM27.9432 13.832C27.9432 13.7642 27.9558 13.7297 28.0104 13.6751L26.5961 12.2609C26.1707 12.6863 25.9432 13.2278 25.9432 13.832H27.9432ZM27.9759 13.7079C28.0683 13.624 28.1323 13.608 28.2032 13.608V11.608C27.6022 11.608 27.0662 11.832 26.6306 12.2281L27.9759 13.7079ZM28.2032 13.608C28.271 13.608 28.3055 13.6205 28.3601 13.6751L29.7744 12.2609C29.349 11.8355 28.8075 11.608 28.2032 11.608V13.608ZM28.3946 13.7079C28.4394 13.7487 28.4521 13.7738 28.4552 13.7807C28.4577 13.7861 28.4633 13.7989 28.4633 13.832H30.4633C30.4633 13.1952 30.1979 12.6444 29.7399 12.2281L28.3946 13.7079ZM28.4633 13.832C28.4633 13.9132 28.448 13.9435 28.3946 13.9921L29.7399 15.4719C30.2145 15.0405 30.4633 14.4708 30.4633 13.832H28.4633ZM28.3601 14.0249C28.3055 14.0795 28.271 14.092 28.2032 14.092V16.092C28.8075 16.092 29.349 15.8645 29.7744 15.4391L28.3601 14.0249ZM27.6272 19.8H28.7793V17.8H27.6272V19.8ZM27.7793 18.8V35H29.7793V18.8H27.7793ZM28.7793 34H27.6272V36H28.7793V34ZM28.6272 35V18.8H26.6272V35H28.6272ZM34.1469 18.8V17.8H33.1469V18.8H34.1469ZM35.2989 18.8H36.2989V17.8H35.2989V18.8ZM35.2989 22.76H34.2989L36.1933 23.2072L35.2989 22.76ZM38.3229 19.628L38.824 20.4935L38.8352 20.4868L38.3229 19.628ZM46.9269 19.556L46.4171 20.4163L46.424 20.4203L46.9269 19.556ZM50.0589 22.652L49.1986 23.1618V23.1618L50.0589 22.652ZM50.0589 31.148L49.1986 30.6382L50.0589 31.148ZM46.9269 34.244L46.424 33.3796L46.4171 33.3837L46.9269 34.244ZM38.3949 34.208L37.8872 35.0696L37.8939 35.0734L38.3949 34.208ZM35.2989 31.076L36.1731 30.5904L34.2989 27.2169V31.076H35.2989ZM35.2989 42.2V43.2H36.2989V42.2H35.2989ZM34.1469 42.2H33.1469V43.2H34.1469V42.2ZM46.3869 33.38L46.8987 34.2391L46.9054 34.2351L46.912 34.231L46.3869 33.38ZM49.0509 30.644L48.1871 30.1401L48.1838 30.1459L49.0509 30.644ZM49.0509 23.192L49.9147 22.6881L49.0509 23.192ZM46.3509 20.456L45.8258 21.307L45.8324 21.3111L45.8391 21.3151L46.3509 20.456ZM38.9709 20.456L38.4538 19.6L38.4458 19.605L38.9709 20.456ZM36.2349 23.228L35.379 22.7109L35.375 22.7175L35.3711 22.7241L36.2349 23.228ZM36.2349 30.644L35.3711 31.1479L35.3774 31.1586L35.3839 31.1691L36.2349 30.644ZM39.0069 33.38L38.4898 34.2359L38.4964 34.2399L38.503 34.2438L39.0069 33.38ZM34.1469 19.8H35.2989V17.8H34.1469V19.8ZM34.2989 18.8V22.76H36.2989V18.8H34.2989ZM36.1933 23.2072C36.746 22.1019 37.6091 21.1968 38.8239 20.4934L37.8219 18.7626C36.3007 19.6432 35.1478 20.8261 34.4045 22.3128L36.1933 23.2072ZM38.8352 20.4868C40.0569 19.7581 41.3211 19.404 42.6429 19.404V17.404C40.9407 17.404 39.3249 17.8659 37.8106 18.7692L38.8352 20.4868ZM42.6429 19.404C44.0302 19.404 45.2811 19.7431 46.4171 20.4163L47.4367 18.6957C45.9807 17.8329 44.3756 17.404 42.6429 17.404V19.404ZM46.424 20.4203C47.5987 21.1038 48.5188 22.0146 49.1986 23.1618L50.9192 22.1422C50.063 20.6974 48.8951 19.5442 47.4298 18.6917L46.424 20.4203ZM49.1986 23.1618C49.8733 24.3003 50.2109 25.5397 50.2109 26.9H52.2109C52.2109 25.1883 51.7805 23.5957 50.9192 22.1422L49.1986 23.1618ZM50.2109 26.9C50.2109 28.2603 49.8733 29.4997 49.1986 30.6382L50.9192 31.6578C51.7805 30.2043 52.2109 28.6117 52.2109 26.9H50.2109ZM49.1986 30.6382C48.5188 31.7854 47.5987 32.6962 46.424 33.3797L47.4298 35.1083C48.8951 34.2558 50.063 33.1026 50.9192 31.6578L49.1986 30.6382ZM46.4171 33.3837C45.2811 34.0569 44.0302 34.396 42.6429 34.396V36.396C44.3756 36.396 45.9807 35.9671 47.4367 35.1043L46.4171 33.3837ZM42.6429 34.396C41.3688 34.396 40.1242 34.0537 38.8959 33.3426L37.8939 35.0734C39.4016 35.9463 40.989 36.396 42.6429 36.396V34.396ZM38.9026 33.3465C37.7037 32.64 36.802 31.7224 36.1731 30.5904L34.4247 31.5616C35.2358 33.0216 36.3981 34.192 37.8872 35.0695L38.9026 33.3465ZM34.2989 31.076V42.2H36.2989V31.076H34.2989ZM35.2989 41.2H34.1469V43.2H35.2989V41.2ZM35.1469 42.2V18.8H33.1469V42.2H35.1469ZM42.7149 35.388C44.2141 35.388 45.6151 35.0038 46.8987 34.2391L45.8751 32.5209C44.9028 33.1002 43.8557 33.388 42.7149 33.388V35.388ZM46.912 34.231C48.1788 33.4494 49.1855 32.4172 49.918 31.1421L48.1838 30.1459C47.6203 31.1268 46.851 31.9186 45.8618 32.529L46.912 34.231ZM49.9147 31.1479C50.6766 29.8417 51.0589 28.4196 51.0589 26.9H49.0589C49.0589 28.0684 48.7692 29.1423 48.1871 30.1401L49.9147 31.1479ZM51.0589 26.9C51.0589 25.401 50.6749 23.9914 49.9147 22.6881L48.1871 23.6959C48.7709 24.6966 49.0589 25.759 49.0589 26.9H51.0589ZM49.9147 22.6881C49.1587 21.3922 48.1386 20.357 46.8627 19.5969L45.8391 21.3151C46.8192 21.899 47.5991 22.6878 48.1871 23.6959L49.9147 22.6881ZM46.876 19.605C45.5909 18.812 44.1852 18.412 42.6789 18.412V20.412C43.8126 20.412 44.8549 20.708 45.8258 21.307L46.876 19.605ZM42.6789 18.412C41.1729 18.412 39.7586 18.8118 38.4538 19.6001L39.488 21.3119C40.4872 20.7082 41.5449 20.412 42.6789 20.412V18.412ZM38.4458 19.605C37.1804 20.3857 36.1558 21.4251 35.379 22.7109L37.0908 23.7451C37.706 22.7269 38.5054 21.9183 39.496 21.307L38.4458 19.605ZM35.3711 22.7241C34.6109 24.0274 34.2269 25.437 34.2269 26.936H36.2269C36.2269 25.795 36.5149 24.7326 37.0987 23.7319L35.3711 22.7241ZM34.2269 26.936C34.2269 28.435 34.6109 29.8446 35.3711 31.1479L37.0987 30.1401C36.5149 29.1394 36.2269 28.077 36.2269 26.936H34.2269ZM35.3839 31.1691C36.1646 32.4345 37.204 33.4591 38.4898 34.2359L39.524 32.5241C38.5058 31.9089 37.6972 31.1095 37.0859 30.1189L35.3839 31.1691ZM38.503 34.2438C39.8063 35.004 41.2159 35.388 42.7149 35.388V33.388C41.5739 33.388 40.5115 33.1 39.5108 32.5162L38.503 34.2438ZM60.9748 35.324V36.324H61.9748V35.324H60.9748ZM57.8788 34.568L57.3875 35.439L57.396 35.4438L57.4047 35.4485L57.8788 34.568ZM55.6468 32.372L56.5081 31.864L55.6468 32.372ZM54.8188 8V7H53.8188V8H54.8188ZM55.9708 8H56.9708V7H55.9708V8ZM56.6188 31.832L55.7472 32.3223L55.7529 32.3325L55.7589 32.3425L56.6188 31.832ZM58.4548 33.668L57.9442 34.5279L57.9543 34.5338L57.9645 34.5396L58.4548 33.668ZM60.9748 34.316H61.9748V33.316H60.9748V34.316ZM60.9748 34.324C60.0018 34.324 59.1343 34.1083 58.3529 33.6875L57.4047 35.4485C58.4953 36.0357 59.6917 36.324 60.9748 36.324V34.324ZM58.3701 33.697C57.589 33.2564 56.9719 32.6504 56.5081 31.864L54.7854 32.88C55.4257 33.9656 56.2966 34.8236 57.3875 35.439L58.3701 33.697ZM56.5081 31.864C56.0524 31.0913 55.8188 30.2245 55.8188 29.24H53.8188C53.8188 30.5595 54.1371 31.7807 54.7854 32.88L56.5081 31.864ZM55.8188 29.24V8H53.8188V29.24H55.8188ZM54.8188 9H55.9708V7H54.8188V9ZM54.9708 8V29.24H56.9708V8H54.9708ZM54.9708 29.24C54.9708 30.3559 55.2236 31.3914 55.7472 32.3223L57.4904 31.3417C57.15 30.7366 56.9708 30.0441 56.9708 29.24H54.9708ZM55.7589 32.3425C56.3003 33.2544 57.0324 33.9865 57.9442 34.5279L58.9653 32.8081C58.3411 32.4375 57.8492 31.9456 57.4786 31.3215L55.7589 32.3425ZM57.9645 34.5396C58.8876 35.0588 59.8973 35.316 60.9748 35.316V33.316C60.2283 33.316 59.558 33.1412 58.945 32.7964L57.9645 34.5396ZM59.9748 34.316V35.324H61.9748V34.316H59.9748ZM75.0558 33.452L74.5577 32.5849L75.0558 33.452ZM77.8638 30.788H78.8638V27.4557L77.0291 30.2374L77.8638 30.788ZM77.8638 32.624L78.6062 33.294L78.8638 33.0085V32.624H77.8638ZM74.9478 34.784L75.3265 35.7095L75.3354 35.7059L75.3443 35.7021L74.9478 34.784ZM67.1358 34.244L66.6144 35.0973L66.6213 35.1015L67.1358 34.244ZM64.0038 31.076L63.1394 31.5789L63.1464 31.5905L64.0038 31.076ZM64.0038 22.544L64.8599 23.0609L64.8641 23.0538L64.0038 22.544ZM67.1358 19.52L66.6636 18.6385L66.657 18.6421L67.1358 19.52ZM77.9718 21.392L78.6744 22.1036L79.3502 21.4364L78.7188 20.7271L77.9718 21.392ZM66.6678 32.552L65.9653 31.8404L65.1739 32.6217L66.0346 33.326L66.6678 32.552ZM68.9718 33.992L68.5851 34.9142L68.5979 34.9196L68.6109 34.9246L68.9718 33.992ZM65.9838 31.868L65.2524 32.5499L65.9562 33.3049L66.6885 32.5775L65.9838 31.868ZM76.5318 21.392L77.2365 22.1015L77.9959 21.3473L77.192 20.6408L76.5318 21.392ZM74.2278 19.916L73.8411 20.8382L73.8539 20.8436L73.8668 20.8486L74.2278 19.916ZM67.6398 20.42L68.1239 21.2951L68.1301 21.2916L67.6398 20.42ZM71.4918 35.424C72.9222 35.424 74.2811 35.0503 75.554 34.3191L74.5577 32.5849C73.5746 33.1497 72.5575 33.424 71.4918 33.424V35.424ZM75.554 34.3191C76.8227 33.5903 77.8721 32.5917 78.6986 31.3386L77.0291 30.2374C76.3676 31.2403 75.545 32.0177 74.5577 32.5849L75.554 34.3191ZM76.8638 30.788V32.624H78.8638V30.788H76.8638ZM77.1215 31.954C76.315 32.8476 75.457 33.4749 74.5514 33.8659L75.3443 35.7021C76.5507 35.1811 77.6367 34.3684 78.6062 33.294L77.1215 31.954ZM74.5692 33.8585C73.6528 34.2334 72.5847 34.432 71.3478 34.432V36.432C72.799 36.432 74.1309 36.1986 75.3265 35.7095L74.5692 33.8585ZM71.3478 34.432C70.0475 34.432 68.8205 34.0886 67.6503 33.3865L66.6213 35.1015C68.0911 35.9834 69.6722 36.432 71.3478 36.432V34.432ZM67.6573 33.3907C66.5009 32.6841 65.5715 31.7451 64.8613 30.5615L63.1464 31.5905C64.0202 33.0469 65.1788 34.2199 66.6144 35.0973L67.6573 33.3907ZM64.8682 30.5731C64.1866 29.4016 63.8518 28.1705 63.8518 26.864H61.8518C61.8518 28.5335 62.2851 30.1104 63.1395 31.5789L64.8682 30.5731ZM63.8518 26.864C63.8518 25.4227 64.1938 24.1641 64.8599 23.0609L63.1478 22.0271C62.2779 23.4679 61.8518 25.0893 61.8518 26.864H63.8518ZM64.8641 23.0538C65.5406 21.9123 66.453 21.0316 67.6147 20.3979L66.657 18.6421C65.1787 19.4484 64.0031 20.5837 63.1436 22.0342L64.8641 23.0538ZM67.6081 20.4015C68.7967 19.7647 70.1207 19.44 71.5998 19.44V17.44C69.815 17.44 68.163 17.8353 66.6636 18.6385L67.6081 20.4015ZM71.5998 19.44C73.793 19.44 75.6507 20.2886 77.2249 22.0569L78.7188 20.7271C76.789 18.5594 74.3987 17.44 71.5998 17.44V19.44ZM77.2693 20.6804L65.9653 31.8404L67.3704 33.2636L78.6744 22.1036L77.2693 20.6804ZM66.0346 33.326C66.8822 34.0195 67.7321 34.5565 68.5851 34.9142L69.3586 33.0698C68.7236 32.8035 68.0375 32.3805 67.3011 31.778L66.0346 33.326ZM68.6109 34.9246C69.4881 35.2641 70.4534 35.424 71.4918 35.424V33.424C70.6583 33.424 69.9436 33.2959 69.3328 33.0594L68.6109 34.9246ZM63.0038 26.756C63.0038 28.993 63.7543 30.9429 65.2524 32.5499L66.7153 31.1861C65.5733 29.9611 65.0038 28.503 65.0038 26.756H63.0038ZM66.6885 32.5775L77.2365 22.1015L75.8272 20.6825L65.2792 31.1585L66.6885 32.5775ZM77.192 20.6408C76.3384 19.8908 75.4713 19.325 74.5888 18.9834L73.8668 20.8486C74.4723 21.083 75.1412 21.5012 75.8717 22.1432L77.192 20.6408ZM74.6146 18.9938C73.7191 18.6183 72.6931 18.448 71.5638 18.448V20.448C72.4986 20.448 73.2486 20.5897 73.8411 20.8382L74.6146 18.9938ZM71.5638 18.448C69.947 18.448 68.4669 18.8074 67.1496 19.5484L68.1301 21.2916C69.1168 20.7366 70.2527 20.448 71.5638 20.448V18.448ZM67.1558 19.545C65.872 20.2551 64.8529 21.246 64.1134 22.5058L65.8383 23.5182C66.3948 22.57 67.1517 21.8329 68.1239 21.295L67.1558 19.545ZM64.1134 22.5058C63.3675 23.7766 63.0038 25.2021 63.0038 26.756H65.0038C65.0038 25.5259 65.2881 24.4554 65.8383 23.5182L64.1134 22.5058ZM82.4367 34.82L82.0192 35.7287L82.0294 35.7334L82.0398 35.7379L82.4367 34.82ZM80.5287 33.272H79.5287V33.555L79.677 33.7961L80.5287 33.272ZM80.5287 31.364L81.4434 30.9598L79.5287 31.364H80.5287ZM82.4007 33.668L81.8638 34.5117L81.873 34.5175L81.8824 34.5232L82.4007 33.668ZM88.2687 33.308L88.9758 34.0151L88.9816 34.0093L88.9873 34.0034L88.2687 33.308ZM88.7367 28.196L87.9325 28.7904L87.9389 28.799L87.9454 28.8074L88.7367 28.196ZM86.7567 26.54L87.2745 25.6845L87.2662 25.6795L87.2577 25.6746L86.7567 26.54ZM85.3887 25.748L84.8681 26.6018L84.8778 26.6077L84.8876 26.6134L85.3887 25.748ZM83.1567 24.344L82.5567 25.144L82.5789 25.1607L82.602 25.1761L83.1567 24.344ZM82.0047 23.156L81.1592 23.69L81.1658 23.7004L81.1726 23.7107L82.0047 23.156ZM82.5807 19.268L83.2315 20.0273L82.5807 19.268ZM88.5207 19.304H89.5207V18.7728L89.0805 18.4754L88.5207 19.304ZM88.5207 20.888L87.723 21.4911L89.5207 23.8687V20.888H88.5207ZM83.4447 19.988L82.82 19.2071L83.4447 19.988ZM83.1567 22.868L82.3397 23.4447L82.348 23.4565L82.3567 23.468L83.1567 22.868ZM84.3447 23.948L83.79 24.7801L83.7988 24.7859L83.8078 24.7917L84.3447 23.948ZM86.9367 25.46L87.431 24.5907L87.4253 24.5875L86.9367 25.46ZM89.6367 27.62L88.846 28.2322L88.8508 28.2385L88.8558 28.2447L89.6367 27.62ZM89.0247 34.064L89.7037 34.7981L89.7045 34.7974L89.0247 34.064ZM85.4967 34.396C84.4556 34.396 83.5748 34.2226 82.8336 33.9021L82.0398 35.7379C83.0746 36.1854 84.2338 36.396 85.4967 36.396V34.396ZM82.8542 33.9113C82.087 33.5588 81.6314 33.1559 81.3803 32.7479L79.677 33.7961C80.1939 34.6361 81.0104 35.2652 82.0192 35.7287L82.8542 33.9113ZM81.5287 33.272V31.364H79.5287V33.272H81.5287ZM79.614 31.7682C80.1335 32.9438 80.8741 33.8819 81.8638 34.5117L82.9376 32.8243C82.3432 32.4461 81.8359 31.8482 81.4434 30.9598L79.614 31.7682ZM81.8824 34.5232C82.8733 35.1237 84.0752 35.388 85.4247 35.388V33.388C84.3262 33.388 83.5121 33.1722 82.919 32.8128L81.8824 34.5232ZM85.4247 35.388C86.8214 35.388 88.039 34.9519 88.9758 34.0151L87.5616 32.6009C87.0584 33.1041 86.38 33.388 85.4247 33.388V35.388ZM88.9873 34.0034C89.9088 33.0512 90.3487 31.8437 90.3487 30.464H88.3487C88.3487 31.3883 88.0686 32.0768 87.5501 32.6126L88.9873 34.0034ZM90.3487 30.464C90.3487 29.3596 90.1222 28.3535 89.528 27.5846L87.9454 28.8074C88.1672 29.0945 88.3487 29.6004 88.3487 30.464H90.3487ZM89.5409 27.6016C89.0246 26.9031 88.243 26.2707 87.2745 25.6845L86.2389 27.3955C87.0944 27.9133 87.6328 28.3849 87.9325 28.7904L89.5409 27.6016ZM87.2577 25.6746L85.8897 24.8826L84.8876 26.6134L86.2557 27.4054L87.2577 25.6746ZM85.9093 24.8942C84.9285 24.2962 84.1983 23.8365 83.7114 23.5119L82.602 25.1761C83.1231 25.5235 83.8808 25.9998 84.8681 26.6018L85.9093 24.8942ZM83.7567 23.544C83.3535 23.2416 83.0529 22.9256 82.8367 22.6013L81.1726 23.7107C81.5325 24.2504 81.9999 24.7264 82.5567 25.144L83.7567 23.544ZM82.8502 22.622C82.6742 22.3434 82.5727 22.0049 82.5727 21.572H80.5727C80.5727 22.3391 80.7591 23.0566 81.1592 23.69L82.8502 22.622ZM82.5727 21.572C82.5727 20.876 82.8015 20.3958 83.2315 20.0273L81.9299 18.5087C81.0159 19.2922 80.5727 20.348 80.5727 21.572H82.5727ZM83.2315 20.0273C83.6846 19.6389 84.3127 19.404 85.2087 19.404V17.404C83.9447 17.404 82.8208 17.7451 81.9299 18.5087L83.2315 20.0273ZM85.2087 19.404C86.3757 19.404 87.273 19.6678 87.9608 20.1326L89.0805 18.4754C87.9924 17.7402 86.6816 17.404 85.2087 17.404V19.404ZM87.5207 19.304V20.888H89.5207V19.304H87.5207ZM89.3183 20.2849C88.3592 19.0163 86.976 18.412 85.3167 18.412V20.412C86.4413 20.412 87.1942 20.7917 87.723 21.4911L89.3183 20.2849ZM85.3167 18.412C84.3796 18.412 83.5178 18.6489 82.82 19.2071L84.0694 20.7689C84.3316 20.5591 84.7178 20.412 85.3167 20.412V18.412ZM82.82 19.2071C82.1095 19.7755 81.7247 20.5517 81.7247 21.464H83.7247C83.7247 21.1763 83.8198 20.9685 84.0694 20.7689L82.82 19.2071ZM81.7247 21.464C81.7247 22.186 81.9256 22.858 82.3397 23.4447L83.9737 22.2913C83.8118 22.062 83.7247 21.798 83.7247 21.464H81.7247ZM82.3567 23.468C82.7279 23.9629 83.2153 24.3969 83.79 24.7801L84.8994 23.1159C84.4661 22.8271 84.1615 22.5411 83.9567 22.268L82.3567 23.468ZM83.8078 24.7917C84.3613 25.1439 85.2463 25.6595 86.4481 26.3325L87.4253 24.5875C86.2271 23.9165 85.3841 23.4241 84.8816 23.1043L83.8078 24.7917ZM86.4424 26.3293C87.6032 26.9894 88.3806 27.6311 88.846 28.2322L90.4274 27.0078C89.7407 26.1209 88.7181 25.3226 87.431 24.5907L86.4424 26.3293ZM88.8558 28.2447C89.2548 28.7434 89.5007 29.4515 89.5007 30.464H91.5007C91.5007 29.1245 91.1706 27.9366 90.4176 26.9953L88.8558 28.2447ZM89.5007 30.464C89.5007 31.7073 89.1013 32.6296 88.3449 33.3306L89.7045 34.7974C90.9161 33.6744 91.5007 32.1967 91.5007 30.464H89.5007ZM88.3456 33.3299C87.5831 34.0353 86.6547 34.396 85.4967 34.396V36.396C87.1227 36.396 88.5463 35.8687 89.7037 34.7981L88.3456 33.3299Z" fill="black"/>
<path d="M6.984 9.044H0.756V8H14.328V9.044H8.172V35H6.984V9.044Z" fill="#E93314"/>
<path d="M6.984 9.044H8.984V7.044H6.984V9.044ZM0.756 9.044H-1.244V11.044H0.756V9.044ZM0.756 8V6H-1.244V8H0.756ZM14.328 8H16.328V6H14.328V8ZM14.328 9.044V11.044H16.328V9.044H14.328ZM8.172 9.044V7.044H6.172V9.044H8.172ZM8.172 35V37H10.172V35H8.172ZM6.984 35H4.984V37H6.984V35ZM6.984 7.044H0.756V11.044H6.984V7.044ZM2.756 9.044V8H-1.244V9.044H2.756ZM0.756 10H14.328V6H0.756V10ZM12.328 8V9.044H16.328V8H12.328ZM14.328 7.044H8.172V11.044H14.328V7.044ZM6.172 9.044V35H10.172V9.044H6.172ZM8.172 33H6.984V37H8.172V33ZM8.984 35V9.044H4.984V35H8.984Z" fill="#E93314"/>
<path d="M61.944 39.85V52H61.422V38.302L71.358 50.632V38.5H71.88V52.198L61.944 39.85ZM78.3826 51.712C79.0066 51.712 79.6006 51.55 80.1646 51.226C80.7286 50.902 81.1966 50.458 81.5686 49.894V50.812C81.1246 51.304 80.6386 51.664 80.1106 51.892C79.5826 52.108 78.9826 52.216 78.3106 52.216C77.5666 52.216 76.8646 52.018 76.2046 51.622C75.5566 51.226 75.0346 50.698 74.6386 50.038C74.2546 49.378 74.0626 48.676 74.0626 47.932C74.0626 47.128 74.2546 46.408 74.6386 45.772C75.0226 45.124 75.5446 44.62 76.2046 44.26C76.8766 43.9 77.6206 43.72 78.4366 43.72C79.6846 43.72 80.7466 44.212 81.6226 45.196L75.9706 50.776C76.3666 51.1 76.7506 51.34 77.1226 51.496C77.4946 51.64 77.9146 51.712 78.3826 51.712ZM74.6386 47.878C74.6386 48.874 74.9686 49.726 75.6286 50.434L80.9026 45.196C80.5066 44.848 80.1226 44.602 79.7506 44.458C79.3786 44.302 78.9346 44.224 78.4186 44.224C77.6866 44.224 77.0326 44.386 76.4566 44.71C75.8926 45.022 75.4486 45.454 75.1246 46.006C74.8006 46.558 74.6386 47.182 74.6386 47.878ZM89.7813 52.198L87.9453 48.274L86.0913 52.198L82.2033 43.9H82.7973L86.1093 50.938L87.6753 47.644L85.9473 43.936H86.5233L87.9633 47.068L89.4393 43.9H90.0153L88.2513 47.662L89.7813 50.956L93.0393 43.918H93.6153L89.7813 52.198ZM96.7933 52.198C96.2173 52.198 95.7073 52.102 95.2633 51.91C94.8193 51.706 94.5013 51.448 94.3093 51.136V50.182C94.5373 50.698 94.8493 51.082 95.2453 51.334C95.6413 51.574 96.1453 51.694 96.7573 51.694C97.3453 51.694 97.8193 51.514 98.1793 51.154C98.5393 50.782 98.7193 50.308 98.7193 49.732C98.7193 49.24 98.6173 48.862 98.4133 48.598C98.2093 48.322 97.8793 48.046 97.4233 47.77L96.7393 47.374C96.2473 47.074 95.8753 46.84 95.6233 46.672C95.3833 46.492 95.1913 46.294 95.0473 46.078C94.9033 45.85 94.8313 45.586 94.8313 45.286C94.8313 44.806 94.9993 44.422 95.3353 44.134C95.6713 43.846 96.1093 43.702 96.6493 43.702C97.3093 43.702 97.8613 43.852 98.3053 44.152V44.944C97.9333 44.452 97.3993 44.206 96.7033 44.206C96.3193 44.206 96.0073 44.302 95.7673 44.494C95.5273 44.686 95.4073 44.932 95.4073 45.232C95.4073 45.496 95.4793 45.73 95.6233 45.934C95.7673 46.126 95.9653 46.306 96.2173 46.474C96.4813 46.642 96.9133 46.894 97.5133 47.23C98.1253 47.578 98.5753 47.938 98.8633 48.31C99.1513 48.67 99.2953 49.144 99.2953 49.732C99.2953 50.476 99.0493 51.076 98.5573 51.532C98.0773 51.976 97.4893 52.198 96.7933 52.198Z" fill="black"/>
<path d="M61.944 39.85L62.3335 39.5365L61.444 38.4311V39.85H61.944ZM61.944 52V52.5H62.444V52H61.944ZM61.422 52H60.922V52.5H61.422V52ZM61.422 38.302L61.8113 37.9883L60.922 36.8847V38.302H61.422ZM71.358 50.632L70.9687 50.9457L71.858 52.0493V50.632H71.358ZM71.358 38.5V38H70.858V38.5H71.358ZM71.88 38.5H72.38V38H71.88V38.5ZM71.88 52.198L71.4905 52.5115L72.38 53.6169V52.198H71.88ZM61.444 39.85V52H62.444V39.85H61.444ZM61.944 51.5H61.422V52.5H61.944V51.5ZM61.922 52V38.302H60.922V52H61.922ZM61.0327 38.6157L70.9687 50.9457L71.7473 50.3183L61.8113 37.9883L61.0327 38.6157ZM71.858 50.632V38.5H70.858V50.632H71.858ZM71.358 39H71.88V38H71.358V39ZM71.38 38.5V52.198H72.38V38.5H71.38ZM72.2695 51.8845L62.3335 39.5365L61.5545 40.1635L71.4905 52.5115L72.2695 51.8845ZM80.1646 51.226L79.9156 50.7924L80.1646 51.226ZM81.5686 49.894H82.0686V48.2278L81.1513 49.6187L81.5686 49.894ZM81.5686 50.812L81.9398 51.147L82.0686 51.0043V50.812H81.5686ZM80.1106 51.892L80.3 52.3549L80.3089 52.351L80.1106 51.892ZM76.2046 51.622L75.9439 52.0487L75.9474 52.0507L76.2046 51.622ZM74.6386 50.038L74.2064 50.2895L74.2099 50.2952L74.6386 50.038ZM74.6386 45.772L75.0667 46.0304L75.0688 46.0269L74.6386 45.772ZM76.2046 44.26L75.9685 43.8192L75.9652 43.8211L76.2046 44.26ZM81.6226 45.196L81.9739 45.5518L82.3118 45.2182L81.9961 44.8635L81.6226 45.196ZM75.9706 50.776L75.6194 50.4202L75.2237 50.8109L75.654 51.163L75.9706 50.776ZM77.1226 51.496L76.9292 51.9573L76.9421 51.9623L77.1226 51.496ZM75.6286 50.434L75.2629 50.7749L75.6148 51.1524L75.981 50.7888L75.6286 50.434ZM80.9026 45.196L81.255 45.5508L81.6347 45.1737L81.2327 44.8204L80.9026 45.196ZM79.7506 44.458L79.5572 44.9193L79.5701 44.9243L79.7506 44.458ZM76.4566 44.71L76.6987 45.1475L76.7018 45.1458L76.4566 44.71ZM78.3826 52.212C79.0978 52.212 79.7773 52.0252 80.4137 51.6596L79.9156 50.7924C79.424 51.0748 78.9155 51.212 78.3826 51.212V52.212ZM80.4137 51.6596C81.0481 51.2951 81.5728 50.7959 81.986 50.1693L81.1513 49.6187C80.8205 50.1201 80.4092 50.5089 79.9156 50.7924L80.4137 51.6596ZM81.0686 49.894V50.812H82.0686V49.894H81.0686ZM81.1974 50.477C80.7942 50.9238 80.3652 51.2374 79.9124 51.433L80.3089 52.351C80.9121 52.0906 81.455 51.6842 81.9398 51.147L81.1974 50.477ZM79.9213 51.4292C79.4631 51.6167 78.9291 51.716 78.3106 51.716V52.716C79.0362 52.716 79.7022 52.5993 80.3 52.3548L79.9213 51.4292ZM78.3106 51.716C77.6605 51.716 77.047 51.5443 76.4619 51.1933L75.9474 52.0507C76.6823 52.4917 77.4728 52.716 78.3106 52.716V51.716ZM76.4654 51.1954C75.8872 50.842 75.4225 50.3725 75.0674 49.7808L74.2099 50.2952C74.6468 51.0235 75.2261 51.61 75.9439 52.0486L76.4654 51.1954ZM75.0708 49.7866C74.73 49.2008 74.5626 48.5853 74.5626 47.932H73.5626C73.5626 48.7667 73.7793 49.5552 74.2065 50.2894L75.0708 49.7866ZM74.5626 47.932C74.5626 47.2113 74.7336 46.5821 75.0667 46.0304L74.2106 45.5136C73.7757 46.2339 73.5626 47.0447 73.5626 47.932H74.5626ZM75.0688 46.0269C75.407 45.4561 75.8632 45.0158 76.4441 44.6989L75.9652 43.8211C75.2261 44.2242 74.6383 44.7919 74.2085 45.5171L75.0688 46.0269ZM76.4408 44.7007C77.0351 44.3824 77.6971 44.22 78.4366 44.22V43.22C77.5442 43.22 76.7182 43.4176 75.9685 43.8193L76.4408 44.7007ZM78.4366 44.22C79.5332 44.22 80.4621 44.6443 81.2492 45.5285L81.9961 44.8635C81.0312 43.7797 79.8361 43.22 78.4366 43.22V44.22ZM81.2714 44.8402L75.6194 50.4202L76.3219 51.1318L81.9739 45.5518L81.2714 44.8402ZM75.654 51.163C76.0778 51.5097 76.5028 51.7782 76.9293 51.9571L77.316 51.0349C76.9985 50.9018 76.6555 50.6903 76.2873 50.389L75.654 51.163ZM76.9421 51.9623C77.3808 52.1321 77.8634 52.212 78.3826 52.212V51.212C77.9659 51.212 77.6085 51.1479 77.3031 51.0297L76.9421 51.9623ZM74.1386 47.878C74.1386 48.9965 74.5139 49.9714 75.2629 50.7749L75.9944 50.0931C75.4234 49.4806 75.1386 48.7515 75.1386 47.878H74.1386ZM75.981 50.7888L81.255 45.5508L80.5503 44.8412L75.2763 50.0792L75.981 50.7888ZM81.2327 44.8204C80.8059 44.4454 80.3724 44.1625 79.9311 43.9917L79.5701 44.9243C79.8729 45.0415 80.2073 45.2506 80.5726 45.5716L81.2327 44.8204ZM79.944 43.9969C79.4963 43.8091 78.9833 43.724 78.4186 43.724V44.724C78.886 44.724 79.261 44.7949 79.5573 44.9191L79.944 43.9969ZM78.4186 43.724C77.6102 43.724 76.8702 43.9037 76.2115 44.2742L76.7018 45.1458C77.1951 44.8683 77.7631 44.724 78.4186 44.724V43.724ZM76.2146 44.2725C75.5727 44.6276 75.0632 45.123 74.6934 45.7529L75.5558 46.2591C75.8341 45.785 76.2125 45.4164 76.6987 45.1475L76.2146 44.2725ZM74.6934 45.7529C74.3205 46.3883 74.1386 47.101 74.1386 47.878H75.1386C75.1386 47.263 75.2808 46.7277 75.5558 46.2591L74.6934 45.7529ZM89.7813 52.198L89.3284 52.4099L89.7836 53.3829L90.235 52.4081L89.7813 52.198ZM87.9453 48.274L88.3982 48.0621L87.9475 47.0989L87.4932 48.0604L87.9453 48.274ZM86.0913 52.198L85.6385 52.4101L86.0894 53.3724L86.5434 52.4116L86.0913 52.198ZM82.2033 43.9V43.4H81.4168L81.7505 44.1121L82.2033 43.9ZM82.7973 43.9L83.2497 43.6871L83.1146 43.4H82.7973V43.9ZM86.1093 50.938L85.6569 51.1509L86.107 52.1074L86.5608 51.1527L86.1093 50.938ZM87.6753 47.644L88.1268 47.8587L88.2279 47.6461L88.1285 47.4328L87.6753 47.644ZM85.9473 43.936V43.436H85.1626L85.4941 44.1472L85.9473 43.936ZM86.5233 43.936L86.9776 43.7271L86.8437 43.436H86.5233V43.936ZM87.9633 47.068L87.509 47.2769L87.9603 48.2584L88.4165 47.2792L87.9633 47.068ZM89.4393 43.9V43.4H89.1206L88.9861 43.6888L89.4393 43.9ZM90.0153 43.9L90.468 44.1123L90.802 43.4H90.0153V43.9ZM88.2513 47.662L87.7986 47.4497L87.6995 47.661L87.7978 47.8726L88.2513 47.662ZM89.7813 50.956L89.3278 51.1666L89.782 52.1446L90.235 51.166L89.7813 50.956ZM93.0393 43.918V43.418H92.7198L92.5855 43.708L93.0393 43.918ZM93.6153 43.918L94.069 44.1281L94.3978 43.418H93.6153V43.918ZM90.2342 51.9861L88.3982 48.0621L87.4924 48.4859L89.3284 52.4099L90.2342 51.9861ZM87.4932 48.0604L85.6392 51.9844L86.5434 52.4116L88.3974 48.4876L87.4932 48.0604ZM86.544 51.9859L82.656 43.6879L81.7505 44.1121L85.6385 52.4101L86.544 51.9859ZM82.2033 44.4H82.7973V43.4H82.2033V44.4ZM82.3449 44.1129L85.6569 51.1509L86.5617 50.7251L83.2497 43.6871L82.3449 44.1129ZM86.5608 51.1527L88.1268 47.8587L87.2237 47.4293L85.6577 50.7233L86.5608 51.1527ZM88.1285 47.4328L86.4005 43.7248L85.4941 44.1472L87.2221 47.8552L88.1285 47.4328ZM85.9473 44.436H86.5233V43.436H85.9473V44.436ZM86.069 44.1449L87.509 47.2769L88.4176 46.8591L86.9776 43.7271L86.069 44.1449ZM88.4165 47.2792L89.8925 44.1112L88.9861 43.6888L87.5101 46.8568L88.4165 47.2792ZM89.4393 44.4H90.0153V43.4H89.4393V44.4ZM89.5626 43.6877L87.7986 47.4497L88.704 47.8743L90.468 44.1123L89.5626 43.6877ZM87.7978 47.8726L89.3278 51.1666L90.2348 50.7454L88.7048 47.4514L87.7978 47.8726ZM90.235 51.166L93.493 44.128L92.5855 43.708L89.3275 50.746L90.235 51.166ZM93.0393 44.418H93.6153V43.418H93.0393V44.418ZM93.1616 43.7079L89.3276 51.9879L90.235 52.4081L94.069 44.1281L93.1616 43.7079ZM95.2633 51.91L95.0545 52.3645L95.0648 52.3689L95.2633 51.91ZM94.3093 51.136H93.8093V51.2775L93.8834 51.398L94.3093 51.136ZM94.3093 50.182L94.7666 49.9799L93.8093 50.182H94.3093ZM95.2453 51.334L94.9768 51.7559L94.9861 51.7616L95.2453 51.334ZM98.1793 51.154L98.5329 51.5076L98.5386 51.5017L98.1793 51.154ZM98.4133 48.598L98.0111 48.8953L98.0176 48.9037L98.4133 48.598ZM97.4233 47.77L97.6822 47.3422L97.6738 47.3373L97.4233 47.77ZM96.7393 47.374L96.4789 47.801L96.4887 47.8067L96.7393 47.374ZM95.6233 46.672L95.3233 47.072L95.3344 47.0803L95.3459 47.088L95.6233 46.672ZM95.0473 46.078L94.6244 46.3451L94.6312 46.3553L95.0473 46.078ZM95.3353 44.134L95.6607 44.5136L95.3353 44.134ZM98.3053 44.152H98.8053V43.8864L98.5852 43.7377L98.3053 44.152ZM98.3053 44.944L97.9064 45.2456L98.8053 46.4343V44.944H98.3053ZM95.7673 44.494L95.4549 44.1036L95.7673 44.494ZM95.6233 45.934L95.2148 46.2223L95.2189 46.2282L95.2233 46.234L95.6233 45.934ZM96.2173 46.474L95.9399 46.8901L95.9488 46.8958L96.2173 46.474ZM97.5133 47.23L97.7604 46.7953L97.7576 46.7937L97.5133 47.23ZM98.8633 48.31L98.4679 48.6161L98.4728 48.6223L98.8633 48.31ZM98.5573 51.532L98.8968 51.899L98.8971 51.8987L98.5573 51.532ZM96.7933 51.698C96.2727 51.698 95.8323 51.6113 95.4617 51.4511L95.0648 52.3689C95.5822 52.5927 96.1618 52.698 96.7933 52.698V51.698ZM95.472 51.4557C95.0884 51.2794 94.8606 51.078 94.7351 50.874L93.8834 51.398C94.1419 51.818 94.5501 52.1326 95.0545 52.3643L95.472 51.4557ZM94.8093 51.136V50.182H93.8093V51.136H94.8093ZM93.8519 50.3841C94.1116 50.9719 94.482 51.4409 94.9768 51.7558L95.5137 50.9122C95.2165 50.7231 94.9629 50.4241 94.7666 49.9799L93.8519 50.3841ZM94.9861 51.7616C95.4816 52.0619 96.0825 52.194 96.7573 52.194V51.194C96.208 51.194 95.801 51.0861 95.5044 50.9064L94.9861 51.7616ZM96.7573 52.194C97.4556 52.194 98.0644 51.976 98.5328 51.5076L97.8257 50.8004C97.5741 51.052 97.2349 51.194 96.7573 51.194V52.194ZM98.5386 51.5017C98.9993 51.0256 99.2193 50.4218 99.2193 49.732H98.2193C98.2193 50.1942 98.0792 50.5384 97.82 50.8063L98.5386 51.5017ZM99.2193 49.732C99.2193 49.1798 99.106 48.6768 98.8089 48.2923L98.0176 48.9037C98.1285 49.0472 98.2193 49.3002 98.2193 49.732H99.2193ZM98.8154 48.3008C98.5572 47.9515 98.1664 47.6353 97.6822 47.3422L97.1644 48.1978C97.5921 48.4567 97.8613 48.6925 98.0112 48.8952L98.8154 48.3008ZM97.6738 47.3373L96.9898 46.9413L96.4887 47.8067L97.1727 48.2027L97.6738 47.3373ZM96.9996 46.9471C96.5092 46.6481 96.1441 46.4183 95.9006 46.256L95.3459 47.088C95.6065 47.2617 95.9853 47.4999 96.479 47.8009L96.9996 46.9471ZM95.9233 46.272C95.7217 46.1208 95.5714 45.9628 95.4633 45.8006L94.6312 46.3553C94.8112 46.6252 95.0448 46.8632 95.3233 47.072L95.9233 46.272ZM95.47 45.811C95.382 45.6717 95.3313 45.5025 95.3313 45.286H94.3313C94.3313 45.6695 94.4245 46.0283 94.6245 46.345L95.47 45.811ZM95.3313 45.286C95.3313 44.938 95.4457 44.6979 95.6607 44.5136L95.0099 43.7544C94.5529 44.1461 94.3313 44.674 94.3313 45.286H95.3313ZM95.6607 44.5136C95.8872 44.3194 96.2013 44.202 96.6493 44.202V43.202C96.0173 43.202 95.4553 43.3726 95.0099 43.7544L95.6607 44.5136ZM96.6493 44.202C97.2328 44.202 97.6814 44.3339 98.0253 44.5663L98.5852 43.7377C98.0411 43.3701 97.3857 43.202 96.6493 43.202V44.202ZM97.8053 44.152V44.944H98.8053V44.152H97.8053ZM98.7041 44.6424C98.2245 44.0082 97.5329 43.706 96.7033 43.706V44.706C97.2656 44.706 97.642 44.8958 97.9064 45.2456L98.7041 44.6424ZM96.7033 43.706C96.2347 43.706 95.8038 43.8244 95.4549 44.1036L96.0796 44.8844C96.2107 44.7796 96.4038 44.706 96.7033 44.706V43.706ZM95.4549 44.1036C95.0997 44.3877 94.9073 44.7758 94.9073 45.232H95.9073C95.9073 45.0882 95.9548 44.9843 96.0796 44.8844L95.4549 44.1036ZM94.9073 45.232C94.9073 45.593 95.0077 45.929 95.2148 46.2223L96.0317 45.6457C95.9508 45.531 95.9073 45.399 95.9073 45.232H94.9073ZM95.2233 46.234C95.4089 46.4815 95.6526 46.6985 95.9399 46.89L96.4946 46.058C96.278 45.9135 96.1257 45.7705 96.0233 45.634L95.2233 46.234ZM95.9488 46.8958C96.2256 47.0719 96.6681 47.3297 97.269 47.6663L97.7576 46.7937C97.1585 46.4583 96.737 46.2121 96.4857 46.0522L95.9488 46.8958ZM97.2661 47.6646C97.8465 47.9947 98.2352 48.3156 98.4679 48.6161L99.2586 48.0039C98.9153 47.5604 98.404 47.1613 97.7604 46.7954L97.2661 47.6646ZM98.4728 48.6223C98.6723 48.8717 98.7953 49.2258 98.7953 49.732H99.7953C99.7953 49.0622 99.6302 48.4683 99.2537 47.9977L98.4728 48.6223ZM98.7953 49.732C98.7953 50.3537 98.5956 50.8148 98.2174 51.1653L98.8971 51.8987C99.503 51.3372 99.7953 50.5983 99.7953 49.732H98.7953ZM98.2177 51.1649C97.8365 51.5176 97.3723 51.698 96.7933 51.698V52.698C97.6063 52.698 98.3181 52.4344 98.8968 51.899L98.2177 51.1649Z" fill="black"/>
</svg>
